<?xml version="1.0" encoding="utf-8"?>
<!-- Generator: Adobe Illustrator 22.0.1, SVG Export Plug-In . SVG Version: 6.00 Build 0)  -->
<svg version="1.1" id="Layer_1" xmlns="http://www.w3.org/2000/svg" xmlns:xlink="http://www.w3.org/1999/xlink" x="0px" y="0px"
	 viewBox="0 0 1366 768" style="enable-background:new 0 0 1366 768;" xml:space="preserve">
<style type="text/css">
	.st0{fill:none;stroke:#616161;stroke-width:2.3777;stroke-miterlimit:10;}
	.st1{fill:#0097A7;}
	.st2{fill:#EF5350;}
	.st3{fill:none;stroke:#E0E0E0;stroke-width:2;stroke-linecap:round;stroke-linejoin:round;stroke-miterlimit:10;}
</style>
<g>
	<g>
		<polyline class="st0" points="262.2,269.9 479.2,658.7 835.3,97.9 990.6,330.9 1157.2,42.8 		"/>
		<path class="st1" d="M294.8,269.9c0,17.2-14.6,31.1-32.6,31.1s-32.6-13.9-32.6-31.1s14.6-31.1,32.6-31.1
			C280.2,238.7,294.8,252.7,294.8,269.9z"/>
		<path class="st1" d="M514.4,647.5c0,17.2-14.6,31.1-32.6,31.1s-32.6-13.9-32.6-31.1c0-17.2,14.6-31.1,32.6-31.1
			C499.8,616.4,514.4,630.3,514.4,647.5z"/>
		<ellipse class="st1" cx="829.7" cy="95.3" rx="32.6" ry="31.1"/>
		<ellipse class="st1" cx="1157.2" cy="42.8" rx="32.6" ry="31.1"/>
		<path class="st1" d="M1023.2,325c0,17.2-14.6,31.1-32.6,31.1S958,342.2,958,325s14.6-31.1,32.6-31.1
			C1008.6,293.8,1023.2,307.8,1023.2,325z"/>
	</g>
	<g>
		<polyline class="st0" points="262.2,447.3 702.5,589.8 861,385.2 1157.2,544.8 		"/>
		<path class="st2" d="M294.8,441.2c0,17.2-14.6,31.1-32.6,31.1s-32.6-13.9-32.6-31.1s14.6-31.1,32.6-31.1
			C280.2,410,294.8,424,294.8,441.2z"/>
		<path class="st2" d="M1189.8,537.7c0,17.2-14.6,31.1-32.6,31.1s-32.6-13.9-32.6-31.1c0-17.2,14.6-31.1,32.6-31.1
			C1175.2,506.6,1189.8,520.5,1189.8,537.7z"/>
		<path class="st2" d="M888,385.2c0,17.2-14.6,31.1-32.6,31.1s-32.6-13.9-32.6-31.1s14.6-31.1,32.6-31.1
			C873.4,354,888,368,888,385.2z"/>
		<path class="st2" d="M729.5,589.8c0,17.2-14.6,31.1-32.6,31.1s-32.6-13.9-32.6-31.1c0-17.2,14.6-31.1,32.6-31.1
			S729.5,572.6,729.5,589.8z"/>
	</g>
	<g>
		<line id="line1" class="st0" x1="284.7" y1="134.4" x2="474.7" y2="324.4"/>
		<line id="line2" class="st0" x1="522.6" y1="326.4" x2="661.6" y2="162.9"/>
		<line id="line3" class="st0" x1="708" y1="143.4" x2="1145" y2="259.4"/>
		<path id="circle4" class="st2" d="M1141.6,263.3c3.6-16.9,20.8-27.8,38.4-24.3c17.6,3.4,29.1,19.8,25.5,36.7s-20.8,27.8-38.4,24.3
			C1149.4,296.6,1138,280.2,1141.6,263.3z"/>
		<path id="circle1" class="st2" d="M230.2,104.8c3.6-16.9,20.8-27.8,38.4-24.3c17.6,3.4,29.1,19.8,25.5,36.7s-20.8,27.8-38.4,24.3
			C238.1,138.1,226.7,121.6,230.2,104.8z"/>
		<path id="circle2" class="st2" d="M461.5,342.7c3.6-16.9,20.8-27.8,38.4-24.3c17.6,3.4,29.1,19.8,25.5,36.7
			c-3.6,16.9-20.8,27.8-38.4,24.3C469.3,376,457.9,359.6,461.5,342.7z"/>
		<path id="circle3" class="st2" d="M641.8,131.3c3.6-16.9,20.8-27.8,38.4-24.3c17.6,3.4,29.1,19.8,25.5,36.7s-20.8,27.8-38.4,24.3
			C649.6,164.6,638.2,148.1,641.8,131.3z"/>
	</g>
	<line class="st3" x1="167.7" y1="620.2" x2="150" y2="620.2"/>
	<line class="st3" x1="167.7" y1="506.4" x2="150" y2="506.4"/>
	<line class="st3" x1="167.7" y1="392.6" x2="150" y2="392.6"/>
	<line class="st3" x1="167.7" y1="278.8" x2="150" y2="278.8"/>
	<line class="st3" x1="167.7" y1="165" x2="150" y2="165"/>
	<line class="st3" x1="167.7" y1="51.2" x2="150" y2="51.2"/>
	<polyline class="st3" points="160.9,13 160.9,721 1205,721 	"/>
</g>
</svg>
