<?xml version="1.0" encoding="utf-8"?>
<!-- Generator: Adobe Illustrator 22.0.1, SVG Export Plug-In . SVG Version: 6.00 Build 0)  -->
<svg version="1.1" id="Layer_1" xmlns="http://www.w3.org/2000/svg" xmlns:xlink="http://www.w3.org/1999/xlink" x="0px" y="0px"
	 viewBox="0 0 1366 768" style="enable-background:new 0 0 1366 768;" xml:space="preserve">
<style type="text/css">
	.st0{fill:none;stroke:#616161;stroke-width:2.3777;stroke-miterlimit:10;}
	.st1{fill:#0097A7;}
	.st2{fill:#EF5350;}
	.st3{fill:none;stroke:#E0E0E0;stroke-width:2;stroke-linecap:round;stroke-linejoin:round;stroke-miterlimit:10;}
</style>
<g>
	<g>
		<polyline class="st0" points="266.2,269.9 483.2,658.7 839.3,97.9 994.6,330.9 1161.2,42.8 		"/>
		<path class="st1" d="M298.8,269.9c0,17.2-14.6,31.1-32.6,31.1s-32.6-13.9-32.6-31.1s14.6-31.1,32.6-31.1
			C284.2,238.7,298.8,252.7,298.8,269.9z"/>
		<path class="st1" d="M518.4,647.5c0,17.2-14.6,31.1-32.6,31.1s-32.6-13.9-32.6-31.1c0-17.2,14.6-31.1,32.6-31.1
			C503.8,616.4,518.4,630.3,518.4,647.5z"/>
		<ellipse class="st1" cx="833.7" cy="95.3" rx="32.6" ry="31.1"/>
		<ellipse class="st1" cx="1161.2" cy="42.8" rx="32.6" ry="31.1"/>
		<path class="st1" d="M1027.2,325c0,17.2-14.6,31.1-32.6,31.1S962,342.2,962,325s14.6-31.1,32.6-31.1
			C1012.6,293.8,1027.2,307.8,1027.2,325z"/>
	</g>
	<g>
		<polyline class="st0" points="266.2,447.3 706.5,589.8 865,385.2 1161.2,544.8 		"/>
		<path class="st2" d="M298.8,441.2c0,17.2-14.6,31.1-32.6,31.1s-32.6-13.9-32.6-31.1s14.6-31.1,32.6-31.1
			C284.2,410,298.8,424,298.8,441.2z"/>
		<path class="st2" d="M1193.8,537.7c0,17.2-14.6,31.1-32.6,31.1s-32.6-13.9-32.6-31.1c0-17.2,14.6-31.1,32.6-31.1
			C1179.2,506.6,1193.8,520.5,1193.8,537.7z"/>
		<path class="st2" d="M892,385.2c0,17.2-14.6,31.1-32.6,31.1s-32.6-13.9-32.6-31.1s14.6-31.1,32.6-31.1
			C877.4,354,892,368,892,385.2z"/>
		<path class="st2" d="M733.5,589.8c0,17.2-14.6,31.1-32.6,31.1s-32.6-13.9-32.6-31.1c0-17.2,14.6-31.1,32.6-31.1
			S733.5,572.6,733.5,589.8z"/>
	</g>
	<g>
		<line id="line1" class="st0" x1="288.7" y1="134.4" x2="478.7" y2="324.4"/>
		<line id="lijntje" class="st0" x1="518.3" y1="325" x2="674.1" y2="169.1"/>
		<line id="line3" class="st0" x1="712" y1="143.4" x2="1149" y2="259.4"/>
		<path id="circle4" class="st2" d="M1145.6,263.3c3.6-16.9,20.8-27.8,38.4-24.3c17.6,3.4,29.1,19.8,25.5,36.7s-20.8,27.8-38.4,24.3
			C1153.4,296.6,1142,280.2,1145.6,263.3z"/>
		<path id="circle1" class="st2" d="M234.2,104.8c3.6-16.9,20.8-27.8,38.4-24.3c17.6,3.4,29.1,19.8,25.5,36.7s-20.8,27.8-38.4,24.3
			C242.1,138.1,230.7,121.6,234.2,104.8z"/>
		<path id="circle2" class="st2" d="M465.5,342.7c3.6-16.9,20.8-27.8,38.4-24.3c17.6,3.4,29.1,19.8,25.5,36.7
			c-3.6,16.9-20.8,27.8-38.4,24.3C473.3,376,461.9,359.6,465.5,342.7z"/>
		<path id="circle3" class="st2" d="M645.8,131.3c3.6-16.9,20.8-27.8,38.4-24.3c17.6,3.4,29.1,19.8,25.5,36.7s-20.8,27.8-38.4,24.3
			C653.6,164.6,642.2,148.1,645.8,131.3z"/>
	</g>
	<line class="st3" x1="171.7" y1="620.2" x2="154" y2="620.2"/>
	<line class="st3" x1="171.7" y1="506.4" x2="154" y2="506.4"/>
	<line class="st3" x1="171.7" y1="392.6" x2="154" y2="392.6"/>
	<line class="st3" x1="171.7" y1="278.8" x2="154" y2="278.8"/>
	<line class="st3" x1="171.7" y1="165" x2="154" y2="165"/>
	<line class="st3" x1="171.7" y1="51.2" x2="154" y2="51.2"/>
	<polyline class="st3" points="164.9,13 164.9,721 1209,721 	"/>
</g>
</svg>
