<?xml version="1.0" encoding="utf-8"?>
<!-- Generator: Adobe Illustrator 22.0.1, SVG Export Plug-In . SVG Version: 6.00 Build 0)  -->
<svg version="1.1" id="Layer_1" xmlns="http://www.w3.org/2000/svg" xmlns:xlink="http://www.w3.org/1999/xlink" x="0px" y="0px"
	 viewBox="0 0 1366 768" style="enable-background:new 0 0 1366 768;" xml:space="preserve">
<style type="text/css">
	.st0{fill:none;stroke:#616161;stroke-width:2.3777;stroke-miterlimit:10;}
	.st1{fill:#0097A7;}
	.st2{fill:#EF5350;}
	.st3{fill:none;stroke:#E0E0E0;stroke-width:2;stroke-linecap:round;stroke-linejoin:round;stroke-miterlimit:10;}
</style>
<g>
	<g>
		<polyline class="st0" points="323.4,284 521.8,656.3 847.5,119.4 989.6,342.5 1141.9,66.6 		"/>
		<path class="st1" d="M353.2,284c0,16.5-13.3,29.8-29.8,29.8c-16.5,0-29.8-13.3-29.8-29.8c0-16.5,13.4-29.8,29.8-29.8
			C339.8,254.2,353.2,267.6,353.2,284z"/>
		<path class="st1" d="M554.1,645.7c0,16.5-13.4,29.8-29.8,29.8c-16.5,0-29.8-13.3-29.8-29.8c0-16.5,13.3-29.8,29.8-29.8
			C540.7,615.8,554.1,629.2,554.1,645.7z"/>
		<circle class="st1" cx="842.4" cy="116.8" r="29.8"/>
		<circle class="st1" cx="1141.9" cy="66.6" r="29.8"/>
		<path class="st1" d="M1019.4,336.8c0,16.5-13.3,29.8-29.8,29.8c-16.5,0-29.8-13.3-29.8-29.8c0-16.5,13.3-29.8,29.8-29.8
			C1006,307,1019.4,320.3,1019.4,336.8z"/>
	</g>
	<g>
		<polyline class="st0" points="323.4,453.9 726,590.4 871.1,394.4 1141.9,547.3 		"/>
		<path class="st2" d="M353.2,448.1c0,16.5-13.3,29.8-29.8,29.8c-16.5,0-29.8-13.3-29.8-29.8c0-16.5,13.4-29.8,29.8-29.8
			C339.8,418.2,353.2,431.6,353.2,448.1z"/>
		<path class="st2" d="M1171.8,540.5c0,16.5-13.3,29.8-29.8,29.8s-29.8-13.3-29.8-29.8c0-16.5,13.3-29.8,29.8-29.8
			S1171.8,524,1171.8,540.5z"/>
		<path class="st2" d="M895.8,394.4c0,16.5-13.3,29.8-29.8,29.8c-16.5,0-29.8-13.3-29.8-29.8c0-16.5,13.3-29.8,29.8-29.8
			C882.4,364.6,895.8,378,895.8,394.4z"/>
		<path class="st2" d="M750.7,590.4c0,16.5-13.3,29.8-29.8,29.8c-16.5,0-29.8-13.3-29.8-29.8c0-16.5,13.3-29.8,29.8-29.8
			C737.4,560.5,750.7,573.9,750.7,590.4z"/>
	</g>
	<g>
		<polyline id="lijn1" class="st0" points="1155.7,284.2 693.6,156.7 528.6,359.2 323.5,125.8 		"/>
		<path id="rood4" class="st2" d="M1126.5,278.3c3.3-16.1,19-26.6,35.1-23.3c16.1,3.3,26.6,19,23.3,35.1
			c-3.3,16.1-19,26.6-35.1,23.3C1133.6,310.2,1123.2,294.5,1126.5,278.3z"/>
		<path id="rood1" class="st2" d="M293,126.5c3.3-16.1,19-26.6,35.1-23.3c16.1,3.3,26.6,19,23.3,35.1c-3.3,16.1-19,26.6-35.1,23.3
			C300.1,158.4,289.7,142.6,293,126.5z"/>
		<path id="rood2" class="st2" d="M504.4,354.4c3.3-16.1,19-26.6,35.1-23.3c16.1,3.3,26.6,19,23.3,35.1c-3.3,16.1-19,26.6-35.1,23.3
			C511.6,386.2,501.2,370.5,504.4,354.4z"/>
		<path id="rood3" class="st2" d="M669.4,151.8c3.3-16.1,19-26.6,35.1-23.3c16.1,3.3,26.6,19,23.3,35.1c-3.3,16.1-19,26.6-35.1,23.3
			C676.5,183.7,666.1,167.9,669.4,151.8z"/>
	</g>
	<line id="top6" class="st3" x1="237" y1="619.5" x2="220.8" y2="619.5"/>
	<line id="top5" class="st3" x1="237" y1="510.5" x2="220.8" y2="510.5"/>
	<line id="top4" class="st3" x1="237" y1="401.5" x2="220.8" y2="401.5"/>
	<line id="top3" class="st3" x1="237" y1="292.6" x2="220.8" y2="292.6"/>
	<line id="top2" class="st3" x1="237" y1="183.6" x2="220.8" y2="183.6"/>
	<line id="top1" class="st3" x1="237" y1="74.6" x2="220.8" y2="74.6"/>
	<polyline id="zijlijn" class="st3" points="230.7,38.1 230.7,716 1185.7,716 	"/>
</g>
</svg>
